# xmcd CD database file
#
# Track frame offsets:
#	150
#	21388
#	37840
#	54879
#	65228
#	76509
#	89815
#	107830
#	130216
#	152358
#	163301
#	182951
#	201502
#	216001
#	241390
#	256951
#
# Disc length: 3696 seconds
#
# Revision: 0
# Processed by: cddbd v1.5.2PL0 Copyright (c) Steve Scherf et al.
# Submitted via: CDex 1.70beta2
#
DISCID=df0e6e10
DTITLE=Various Artist - The Best of Jazz
DYEAR=1900
DGENRE=Jazz
TTITLE0=They can't take that away from me_Gerry Paule and Edu Elis
TTITLE1=Dream a little dream_Vikki O'day
TTITLE2=Rhythm of the rain_Sandra delmar
TTITLE3=You for me_Jasmine R
TTITLE4=My funny valentine_Harburg Jill
TTITLE5=I love you for sentimental reasons_tony caron
TTITLE6=Making whoopee_Stephan franke
TTITLE7=The sentimental touch_Sophiea Roseman
TTITLE8=Tears in heaven_Linda Gilberto
TTITLE9=I see your face before me_USA Fygi
TTITLE10=Brother can you spare a dime_Bob morton
TTITLE11=As time goes by_Boosey
TTITLE12=Misty_Shirley Burton
TTITLE13=Another Star_Attica S
TTITLE14=House of the rising sun_Ronnie Morris
TTITLE15=When I look in your eyes_Billie Ross
EXTD=
EXTT0=
EXTT1=
EXTT2=
EXTT3=
EXTT4=
EXTT5=
EXTT6=
EXTT7=
EXTT8=
EXTT9=
EXTT10=
EXTT11=
EXTT12=
EXTT13=
EXTT14=
EXTT15=
PLAYORDER=
